<?xml version="1.0" encoding="iso-8859-1"?>
<!DOCTYPE svg PUBLIC "-//W3C//DTD SVG 1.1 Basic//EN" "http://www.w3.org/Graphics/SVG/1.1/DTD/svg11-basic.dtd">
<svg version="1.1" baseProfile="basic"
   xmlns="http://www.w3.org/2000/svg" xmlns:xlink="http://www.w3.org/1999/xlink" x="0px" y="0px" width="32px" height="32px"
   viewBox="0 0 32 32" xml:space="preserve">
  <path transform="matrix(0.032,0,0,0.032,0,0)" stroke="none" style="fill:#4b5ff6" d="M 850 846 L 850 729 L 815 729 L 815 846 L 699 846 L 699 882 L 815 882 L 815 1000 L 850 1000 L 850 882 L 966 882 L 966 846 z M 35 923 C 35 803 115 781 267 748 C 287 744 309 740 330 734 L 344 731 L 344 646 C 373 661 405 670 437 670 C 470 670 502 661 531 646 L 531 731 L 545 734 C 566 740 588 744 608 748 C 683 764 740 778 779 802 L 779 761 C 734 738 677 726 616 713 C 600 710 583 706 566 703 L 566 623 C 628 576 673 496 687 400 C 692 380 702 329 705 282 C 708 243 702 213 697 195 C 715 182 722 161 723 148 L 725 126 L 704 128 C 704 128 701 129 698 129 C 683 129 671 125 669 120 C 624 13 516 0 440 0 C 439 0 438 0 436 0 L 434 0 C 428 0 282 1 239 96 C 212 110 130 174 188 406 L 189 406 C 204 499 249 577 309 623 L 309 703 C 292 706 275 710 260 713 C 120 743 0 769 0 923 L 0 1000 L 779 1000 L 779 964 L 35 964 L 35 923 z M 223 399 L 221 383 L 220 383 C 168 162 258 127 259 126 L 267 124 L 270 115 C 299 37 433 35 434 35 L 436 35 L 438 36 C 547 36 608 67 636 134 C 643 149 658 160 679 163 C 677 166 673 168 669 169 L 650 175 L 658 194 C 659 194 673 228 670 279 C 667 325 656 378 652 394 C 632 533 541 634 437 634 C 335 634 245 535 223 399 z"/>
</svg>