<?xml version="1.0" encoding="iso-8859-1"?>
<!DOCTYPE svg PUBLIC "-//W3C//DTD SVG 1.1 Basic//EN" "http://www.w3.org/Graphics/SVG/1.1/DTD/svg11-basic.dtd">
<svg version="1.1" baseProfile="basic"
   xmlns="http://www.w3.org/2000/svg" xmlns:xlink="http://www.w3.org/1999/xlink" x="0px" y="0px" width="32px" height="32px"
   viewBox="0 0 32 32" xml:space="preserve">
  <path transform="matrix(0.032,0,0,0.032,0,7)" stroke="none" style="fill:#FFFFFF" d="M 1000 501 L 1000 545 L 811 545 L 811 457 L 909 457 C 908 444 906 431 903 418 C 903 416 902 414 901 411 C 899 401 896 390 893 380 C 892 375 890 371 889 366 C 886 358 883 351 880 343 C 878 338 876 333 873 328 C 870 321 867 315 863 308 C 861 303 858 298 855 293 C 851 287 848 281 844 275 C 841 270 837 265 834 261 C 830 255 826 249 821 244 C 818 239 814 235 810 230 C 805 225 801 220 796 215 C 793 212 791 209 788 207 L 735 273 L 666 217 L 719 152 C 714 149 710 146 705 144 C 700 141 695 138 690 135 C 684 132 677 129 671 126 C 665 123 660 121 655 119 C 648 116 641 113 634 111 C 629 109 624 107 618 105 C 611 103 603 101 595 100 C 590 98 585 97 580 96 C 571 94 562 93 554 92 C 550 91 547 91 544 90 L 544 163 L 455 163 L 455 90 C 452 91 449 91 445 92 C 437 93 428 94 419 96 C 414 97 409 98 404 100 C 396 101 388 103 381 105 C 375 107 370 109 365 111 C 358 113 351 116 344 119 C 339 121 334 123 328 126 C 322 129 315 132 309 135 C 304 138 299 141 294 144 C 289 146 285 149 280 152 L 333 217 L 264 273 L 211 207 C 209 209 206 212 203 215 C 198 220 194 225 189 230 C 185 235 181 239 178 244 C 173 249 169 255 165 260 C 162 265 158 270 155 275 C 151 281 148 287 144 293 C 141 298 138 303 136 308 C 132 315 129 321 126 328 C 124 333 121 338 119 343 C 116 351 113 358 111 366 C 109 371 107 375 106 380 C 103 390 100 400 98 411 C 97 413 96 416 96 418 C 93 431 91 444 90 457 L 189 457 L 189 545 L 0 545 L 0 501 C 0 224 224 0 499 0 C 775 0 1000 224 1000 501 z M 451 497 C 451 461 500 225 500 225 C 500 225 548 461 548 497 C 548 523 526 545 500 545 C 473 545 451 523 451 497 z M 472 497 C 472 512 484 524 500 524 C 515 524 527 512 527 497 C 527 482 515 469 500 469 C 484 469 472 482 472 497 z"/>
</svg>