<?xml version="1.0" encoding="iso-8859-1"?>
<!DOCTYPE svg PUBLIC "-//W3C//DTD SVG 1.1 Basic//EN" "http://www.w3.org/Graphics/SVG/1.1/DTD/svg11-basic.dtd">
<svg version="1.1" baseProfile="basic"
   xmlns="http://www.w3.org/2000/svg" xmlns:xlink="http://www.w3.org/1999/xlink" x="0px" y="0px" width="32px" height="32px"
   viewBox="0 0 32 32" xml:space="preserve">
  <path transform="matrix(0.032,0,0,0.032,2,0)" stroke="none" style="fill:#FFFFFF" d="M 748 1000 z M 748 1000 C 748 1000 123 1000 123 1000 C 54 1000 0 943 0 875 C 0 875 0 124 0 124 C 0 54 54 0 123 0 C 123 0 748 0 748 0 C 816 0 871 54 871 124 C 871 124 871 875 871 875 C 871 943 816 1000 748 1000 z M 809 64 C 809 64 62 64 62 64 C 62 64 62 936 62 936 C 62 936 809 936 809 936 C 809 936 809 64 809 64 z M 684 315 C 684 315 184 315 184 315 C 184 315 184 190 184 190 C 184 190 684 190 684 190 C 684 190 684 315 684 315 z M 310 562 C 310 562 185 562 185 562 C 185 562 185 501 185 501 C 185 501 310 501 310 501 C 310 501 310 562 310 562 z M 310 687 C 310 687 185 687 185 687 C 185 687 185 625 185 625 C 185 625 310 625 310 625 C 310 625 310 687 310 687 z M 310 811 C 310 811 185 811 185 811 C 185 811 185 750 185 750 C 185 750 310 750 310 750 C 310 750 310 811 310 811 z M 497 562 C 497 562 372 562 372 562 C 372 562 372 501 372 501 C 372 501 497 501 497 501 C 497 501 497 562 497 562 z M 497 687 C 497 687 372 687 372 687 C 372 687 372 625 372 625 C 372 625 497 625 497 625 C 497 625 497 687 497 687 z M 497 811 C 497 811 372 811 372 811 C 372 811 372 750 372 750 C 372 750 497 750 497 750 C 497 750 497 811 497 811 z M 684 562 C 684 562 559 562 559 562 C 559 562 559 501 559 501 C 559 501 684 501 684 501 C 684 501 684 562 684 562 z M 684 687 C 684 687 559 687 559 687 C 559 687 559 625 559 625 C 559 625 684 625 684 625 C 684 625 684 687 684 687 z M 684 811 C 684 811 559 811 559 811 C 559 811 559 750 559 750 C 559 750 684 750 684 750 C 684 750 684 811 684 811"/>
</svg>