<?xml version="1.0" encoding="iso-8859-1"?>
<!DOCTYPE svg PUBLIC "-//W3C//DTD SVG 1.1 Basic//EN" "http://www.w3.org/Graphics/SVG/1.1/DTD/svg11-basic.dtd">
<svg version="1.1" baseProfile="basic"
   xmlns="http://www.w3.org/2000/svg" xmlns:xlink="http://www.w3.org/1999/xlink" x="0px" y="0px" width="32px" height="32px"
   viewBox="0 0 32 32" xml:space="preserve">
  <path transform="matrix(0.032,0,0,0.032,0,0)" stroke="none" style="fill:#FFFFFF" d="M 444 780 L 444 730 C 415 747 384 756 351 756 C 318 756 286 747 258 730 L 258 780 C 114 813 0 818 0 951 L 0 1000 L 702 1000 L 702 951 C 702 818 587 813 444 780 z M 157 519 C 176 637 256 726 351 726 C 447 726 527 635 545 515 C 548 502 557 458 560 418 C 563 371 549 340 549 340 C 573 333 575 307 575 307 C 575 307 539 311 530 291 C 501 221 436 201 351 200 C 351 200 351 200 351 200 C 350 200 350 200 350 200 C 349 200 349 200 348 200 C 348 200 225 200 197 276 C 197 276 103 306 157 519 L 157 519 z M 725 579 L 725 530 C 696 546 665 555 632 555 C 613 555 594 552 577 546 C 561 616 526 675 481 713 L 481 730 L 481 750 C 489 752 496 754 504 755 C 557 766 609 777 651 799 L 983 799 L 983 750 C 983 618 868 612 725 579 z M 562 270 C 563 270 566 270 568 270 C 570 270 571 270 571 270 L 616 265 L 612 310 C 611 322 605 340 592 355 C 596 372 599 394 597 421 C 594 459 586 499 582 517 C 598 522 615 525 632 525 C 728 525 808 434 826 314 C 829 301 838 257 841 217 C 844 170 830 139 830 139 C 854 132 856 106 856 106 C 856 106 820 110 811 90 C 782 20 717 0 632 0 C 632 0 632 0 632 0 C 631 0 631 0 631 0 C 630 0 630 0 629 0 C 629 0 506 0 478 75 C 478 75 433 90 423 169 C 477 179 532 205 562 270 z"/>
</svg>