<?xml version="1.0" encoding="iso-8859-1"?>
<!DOCTYPE svg PUBLIC "-//W3C//DTD SVG 1.1 Basic//EN" "http://www.w3.org/Graphics/SVG/1.1/DTD/svg11-basic.dtd">
<svg version="1.1" baseProfile="basic"
   xmlns="http://www.w3.org/2000/svg" xmlns:xlink="http://www.w3.org/1999/xlink" x="0px" y="0px" width="32px" height="32px"
   viewBox="0 0 32 32" xml:space="preserve">
  <path transform="matrix(0.032,0,0,0.032,0,0)" stroke="none" style="fill:#4b5ff6" d="M 991 261 L 738 8 C 730 0 717 0 709 8 L 580 137 L 137 580 C 137 580 137 580 137 581 L 136 581 C 136 581 136 581 136 581 L 136 581 L 136 581 C 136 581 136 581 136 581 C 136 581 136 581 136 581 C 136 581 136 581 136 581 C 136 581 136 581 136 581 C 135 582 134 584 133 586 C 133 586 133 586 133 586 L 133 586 C 133 586 133 586 133 587 C 133 587 132 587 132 588 L 59 802 C 59 802 59 802 59 802 L 1 972 C 0 974 0 977 0 979 L 0 979 L 0 979 C 0 982 0 984 1 987 C 2 989 4 992 6 994 C 8 995 10 997 12 998 C 15 999 17 1000 20 1000 C 20 1000 20 1000 20 1000 L 21 1000 L 21 1000 L 21 1000 L 21 1000 C 23 999 25 999 27 998 L 197 940 C 197 940 197 940 197 940 L 411 867 C 414 866 417 864 419 862 L 419 862 C 419 862 419 862 419 862 L 862 419 C 862 419 862 419 862 419 L 991 290 C 995 286 998 280 998 275 C 998 270 995 264 991 261 z M 594 181 L 692 278 L 278 692 L 181 594 L 594 181 z M 53 946 L 87 847 L 152 912 L 53 946 z M 196 897 L 102 803 L 160 632 L 367 839 L 196 897 z M 405 818 L 307 721 L 721 307 L 818 405 L 405 818 z M 847 376 L 623 152 L 724 51 L 948 275 L 847 376 z"/>
</svg>