<?xml version="1.0" encoding="iso-8859-1"?>
<!DOCTYPE svg PUBLIC "-//W3C//DTD SVG 1.1 Basic//EN" "http://www.w3.org/Graphics/SVG/1.1/DTD/svg11-basic.dtd">
<svg version="1.1" baseProfile="basic"
   xmlns="http://www.w3.org/2000/svg" xmlns:xlink="http://www.w3.org/1999/xlink" x="0px" y="0px" width="32px" height="32px"
   viewBox="0 0 32 32" xml:space="preserve">
  <path transform="matrix(0.032,0,0,0.032,0,0)" stroke="none" style="fill:#4b5ff6" d="M 942 1000 L 40 1000 C 29 1000 19 991 19 980 C 18 978 0 728 337 631 C 338 631 343 630 349 626 C 356 623 364 624 370 628 C 407 652 448 664 491 664 C 534 664 575 652 612 628 C 618 624 626 623 633 626 C 639 630 644 631 644 631 C 982 728 964 978 963 980 C 963 991 953 1000 942 1000 z M 61 957 L 921 957 C 918 902 886 744 633 671 C 633 671 630 671 625 669 C 543 718 439 718 357 669 C 352 671 349 672 348 672 C 98 743 65 902 61 957 z M 491 618 C 405 618 328 550 295 447 C 267 444 244 412 239 367 C 233 321 248 284 274 273 C 267 233 261 168 286 132 C 294 121 304 113 315 109 C 318 93 327 69 349 47 C 380 15 428 0 491 0 C 586 0 637 33 664 62 C 687 87 699 114 701 133 C 713 149 733 192 712 275 C 736 287 748 323 743 367 C 738 412 715 444 687 447 C 654 550 577 618 491 618 z M 309 401 C 312 401 314 402 316 403 C 323 405 328 410 330 417 C 354 512 419 576 491 576 C 563 576 628 512 652 417 C 654 410 659 405 665 402 C 672 400 679 401 685 405 C 687 404 698 389 701 362 C 704 335 697 317 693 312 C 686 315 677 314 671 309 C 665 303 662 295 665 287 C 695 190 666 156 665 156 C 661 152 659 146 659 140 C 659 136 655 113 632 90 C 611 68 570 42 491 42 C 440 42 402 53 379 76 C 356 99 355 126 355 126 C 356 137 347 146 337 147 C 330 148 325 150 321 156 C 304 179 309 242 320 289 C 322 298 319 306 312 311 C 305 316 296 316 289 312 C 286 314 277 332 281 362 C 284 387 293 401 298 405 C 301 402 305 401 309 401 z"/>
</svg>